<svg xmlns="http://www.w3.org/2000/svg" fill="none" viewBox="0 0 1448 726">
  <path fill="#fff" d="M0 569h1440v157H0V569Z"/>
  <path fill="#fff" d="M0 564h1440v102H0V564Z"/>
  <path fill="#fff" fill-opacity=".25" d="M1492.41 276.059c22.64-9.396 42.61-24.974 57.23-46.358 43.07-63.024 23.28-152.61-44.2-200.094-67.48-47.486-157.1-34.89-200.17 28.135-24.68 36.114-28.72 80.949-14.98 121.587-10.86 5.885-17.26-5.08-31.19 7.428-4.62 4.145-8.74 22.955-12.77 27.477-42.71-32.28-104.55-37.751-158.42-9.081-40.13 21.364-67.46 57.224-78.03 96.478-21.98-8.391-46.074-10.366-69.911-4.33-38.729 9.808-68.318 38.624-82.924 75.538-23.029-45.848-72.337-78.675-130.747-81.22-47.129-2.054-90.07 16.047-119.045 46.056-29.098-32.539-74.635-54.496-126.618-56.761-51.188-2.231-97.811 15.104-129.607 44.171-15.789-30.484-46.677-51.853-83.033-53.437a97.083 97.083 0 0 0-51.56 12.159c-19.699-33.452-55.068-56.504-96.313-58.301a117.126 117.126 0 0 0-21.788 1.075 122.624 122.624 0 0 0 2.572-20.234c2.885-66.21-47.642-122.188-112.854-125.03-65.213-2.841-120.417 48.529-123.303 114.739-2.885 66.21 47.642 122.187 112.855 125.029 7.412.323 14.696-.055 21.788-1.075a122.591 122.591 0 0 0-2.572 20.234c-2.885 66.21 47.641 122.188 112.854 125.029 30.244 1.318 58.335-9.024 80.053-27.099 17.102 19.606 41.722 32.406 69.546 33.618 20.45.891 39.721-4.604 55.941-14.743 19.754 55.822 80.158 98.034 153.335 101.222 51.983 2.266 99.257-15.647 131.076-45.532 26.254 32.416 67.458 54.184 114.587 56.237 64.332 2.804 118.978 49.008 142.833-2.32 25.455 60.688 88.867 15.171 148.775 0 48.19-12.204 82.23-53.837 90.86-103.881 36.78 11.761 79.41 8.727 117.95-11.788 15.25-8.114 28.64-18.319 39.98-30.007 51.63 41.445 130.28 37.81 185.64-11.867 39.69-35.618 57.72-86.213 52.16-133.054Z"/>
  <path fill="#fff" fill-opacity=".35" d="M-12.483 508.719c-22.244-4.476-29.684-45.813-46.12-61.73-48.443-46.914-42.309-126.171 13.701-177.026 56.01-50.856 140.686-54.051 189.13-7.137 27.759 26.882 37.597 64.385 30.4 101.078a150.97 150.97 0 0 1 31.668 13.805 147.563 147.563 0 0 1 13.782 9.056c35.142-34.079 91.651-48.329 145.412-32.306 40.061 11.939 70.233 38.196 85.362 69.938 19.202-10.546 41.237-15.966 64.125-14.531 37.187 2.331 68.497 22.245 87.038 51.371 15.083-42.564 56.265-78.133 109.99-89.362 43.349-9.061 85.563-.33 116.466 20.693 22.513-32.188 61.681-57.927 109.495-67.921 47.083-9.84 92.604-2.333 125.984 17.452 10.47-28.375 36.16-51.342 69.6-58.331 17.15-3.583 34.11-2.502 49.39 2.34 13.68-31.506 43.29-56.599 81.23-64.528a119.581 119.581 0 0 1 20.31-2.467 97.367 97.367 0 0 1-5.13-16.809c-11.67-55.859 27.49-111.306 87.47-123.842 59.98-12.537 118.07 22.583 129.75 78.442 11.67 55.86-27.49 111.306-87.47 123.843a119.574 119.574 0 0 1-20.32 2.467 97.39 97.39 0 0 1 5.14 16.809c11.67 55.859-27.49 111.305-87.47 123.842-27.82 5.814-55.23 1.379-77.8-10.623-13.16 19.327-34.21 34.034-59.8 39.383-18.81 3.931-37.4 2.248-53.8-3.857-10.69 50.539-60.87 95.811-128.177 109.879-47.813 9.993-94.012 2.096-127.532-18.381-19.896 31.641-55.079 56.548-98.428 65.608-59.173 12.367-116.229-8.414-145.293-48.363-15.31 55.562-67.45 95.248-124.973 91.643-46.271-2.9-83.443-33.024-98.239-74.244-32.449 15.71-72.325 19.745-110.795 8.28-15.215-4.535-29.003-11.135-41.083-19.316-42.165 43.259-115.471 52.374-173.471 18.718-41.586-24.132-78.323-33.173-79.542-73.873Z"/>
  <path fill="#fff" d="M1527.23 648.258c21.59-7.989 8.59-194.725 22.38-212.9 40.64-53.57-.17-144.205-65.16-184.552-64.98-40.347-150.61-29.628-191.25 23.941-23.29 30.697-26.76 68.803-13.24 103.338a153.905 153.905 0 0 0-29.46 18.607 149.085 149.085 0 0 0-12.3 11.065c-41.14-27.428-100.36-32.069-151.63-7.694-38.21 18.162-64.03 48.643-73.8 82.007-21.099-7.128-44.167-8.804-66.918-3.67-36.966 8.342-65.016 32.836-78.66 64.211-22.441-38.962-69.909-66.854-125.813-69.008-45.106-1.739-86.027 13.652-113.479 39.16-28.13-27.65-71.892-46.304-121.644-48.222-48.993-1.888-93.442 12.852-123.601 37.56-15.379-25.906-45.121-44.062-79.917-45.403-17.839-.688-34.694 3.134-49.219 10.342-19.145-28.428-53.19-48.014-92.664-49.535a125.75 125.75 0 0 0-20.836.916 92.809 92.809 0 0 0 2.28-17.197c2.168-56.271-46.67-103.838-109.086-106.243-62.415-2.406-114.77 41.261-116.94 97.533-2.168 56.271-79.968 129.549-17.552 131.954 7.094.274-19.226 183.968 103.869 69.388-1.278 5.569-18.924-23.654-19.15-17.771-2.17 56.272 107.146 42.791 169.561 45.196 28.946 1.116 55.729-7.678 76.345-23.043 16.537 16.66 40.206 27.535 66.836 28.561 19.573.755 37.961-3.919 53.387-12.538 19.399 47.44 77.565 83.306 147.602 86.005 49.753 1.917 94.82-13.313 124.995-38.717 25.407 27.546 59.025 2.712 104.132 4.451 61.572 2.373 121.34 16.157 143.704-27.47 24.895 51.575 84.077 81.684 141.258 68.781 45.99-10.379 78.19-45.767 86-88.3 35.29 9.99 76.05 7.405 112.74-10.036 14.51-6.898 25.53 55.012 31.23 28.26 49.77 35.216 106.01 96.51 158.53 54.282 37.65-30.277 133.22-3.45 127.47-43.259Z"/>
</svg>
